General
Complete name : Bron.Broen.S01E01.DVDRip.XviD.avi
Format : AVI
Format/Info : Audio Video Interleave
File size : 571 MiB
Duration : 57mn 30s
Overall bit rate : 1 389 Kbps
Movie name : The Bridge
Writing application : Lavf52.78.4
Original source form/Name : BROEN_1_5_FRIEMKE

Video
ID : 0
Format : MPEG-4 Visual
Format profile : Advanced Simple@L5
Format settings, BVOP : 2
Format settings, QPel : No
Format settings, GMC : No warppoints
Format settings, Matrix : Default (H.263)
Muxing mode : Packed bitstream
Codec ID : XVID
Codec ID/Hint : XviD
Duration : 57mn 30s
Bit rate : 930 Kbps
Width : 720 pixels
Height : 406 pixels
Display aspect ratio : 16:9
Frame rate : 25.000 fps
Color space : YUV
Chroma subsampling : 4:2:0
Bit depth : 8 bits
Scan type : Progressive
Compression mode : Lossy
Bits/(Pixel*Frame) : 0.127
Stream size : 382 MiB (67%)
Writing library : XviD 1.2.1 (UTC 2008-12-04)

Audio
ID : 1
Format : AC-3
Format/Info : Audio Coding 3
Mode extension : CM (complete main)
Codec ID : 2000
Duration : 57mn 28s
Bit rate mode : Constant
Bit rate : 448 Kbps
Channel(s) : 6 channels
Channel positions : Front: L C R, Side: L R, LFE
Sampling rate : 48.0 KHz
Bit depth : 16 bits
Compression mode : Lossy
Stream size : 184 MiB (32%)
Alignment : Aligned on interleaves
Interleave, duration : 32 ms (0.80 video frame)
Interleave, preload duration : 32 ms



Show info
Episode Name: Episode 1
Season: 1
Episode: 1
Aired: 2011-09-28

Episode Overview:
A woman is found murdered in the middle of the Öresund bridge - just on the border between Sweden and Denmark. Saga Noren from the County Crimea Malmo and Martin Rohde from Copenhagen police are called to the scene. What at first appears to be a murder turns out to be two. The upper body is from a well-known Swedish politician and the lower body from a Danish prostitute.



Screenshots:           
http://i.imgur.com/lTt9tXn.jpg